<svg xmlns="http://www.w3.org/2000/svg" width="424" height="128">
    <style>line, path, circle,rect,polygon {
                          stroke: #DBD9D9;
                          stroke-width: 2;
                          stroke-opacity: 1;
                          fill-opacity: 1;
                          stroke-linecap: round;
                          stroke-linejoin: miter;
                        }

                    text {
                            fill: white;
                        }
                        rect.backdrop{
                            stroke: none;
                            fill: white;
                            fill-opacity: 0;
                        }
                        .broken{
                            stroke-dasharray: 8;
                        }
                        .filled{
                            fill: #DBD9D9;
                        }
                        .bg_filled{
                            fill: white;
                        }
                        .nofill{
                            fill: white;
                        }

                        text {
                         font-family: monospace;
                         font-size: 14px;
                        }

                        .end_marked_arrow{
                            marker-end: url(#arrow);
                         }
                        .start_marked_arrow{
                            marker-start: url(#arrow);
                         }

                        .end_marked_diamond{
                            marker-end: url(#diamond);
                         }
                        .start_marked_diamond{
                            marker-start: url(#diamond);
                         }

                        .end_marked_circle{
                            marker-end: url(#circle);
                         }
                        .start_marked_circle{
                            marker-start: url(#circle);
                         }

                        .end_marked_open_circle{
                            marker-end: url(#open_circle);
                         }
                        .start_marked_open_circle{
                            marker-start: url(#open_circle);
                         }

                        .end_marked_big_open_circle{
                            marker-end: url(#big_open_circle);
                         }
                        .start_marked_big_open_circle{
                            marker-start: url(#big_open_circle);
                         }

                         
                        </style>
    <defs>
        <marker id="arrow" viewBox="-2 -2 8 8" refX="4" refY="2" markerWidth="7" markerHeight="7" orient="auto-start-reverse">
            <polygon points="0,0 0,4 4,2 0,0"></polygon>
        </marker>
        <marker id="diamond" viewBox="-2 -2 8 8" refX="4" refY="2" markerWidth="7" markerHeight="7" orient="auto-start-reverse">
            <polygon points="0,2 2,0 4,2 2,4 0,2"></polygon>
        </marker>
        <marker id="circle" viewBox="0 0 8 8" refX="4" refY="4" markerWidth="7" markerHeight="7" orient="auto-start-reverse">
            <circle cx="4" cy="4" r="2" class="filled"></circle>
        </marker>
        <marker id="open_circle" viewBox="0 0 8 8" refX="4" refY="4" markerWidth="7" markerHeight="7" orient="auto-start-reverse">
            <circle cx="4" cy="4" r="2" class="bg_filled"></circle>
        </marker>
        <marker id="big_open_circle" viewBox="0 0 8 8" refX="4" refY="4" markerWidth="7" markerHeight="7" orient="auto-start-reverse">
            <circle cx="4" cy="4" r="3" class="bg_filled"></circle>
        </marker>
    </defs>
    <rect class="backdrop" x="0" y="0" width="424" height="128"></rect>
    <rect x="0" y="16" width="8" height="16" class="solid filled" rx="0"></rect>
    <rect x="8" y="16" width="8" height="16" class="solid filled" rx="0"></rect>
    <rect x="40" y="16" width="8" height="16" class="solid filled" rx="0"></rect>
    <rect x="48" y="16" width="8" height="16" class="solid filled" rx="0"></rect>
    <rect x="64" y="16" width="8" height="16" class="solid filled" rx="0"></rect>
    <rect x="72" y="16" width="8" height="16" class="solid filled" rx="0"></rect>
    <rect x="80" y="16" width="8" height="16" class="solid filled" rx="0"></rect>
    <rect x="88" y="16" width="8" height="16" class="solid filled" rx="0"></rect>
    <rect x="96" y="16" width="8" height="16" class="solid filled" rx="0"></rect>
    <rect x="104" y="16" width="8" height="16" class="solid filled" rx="0"></rect>
    <rect x="128" y="16" width="8" height="16" class="solid filled" rx="0"></rect>
    <rect x="136" y="16" width="8" height="16" class="solid filled" rx="0"></rect>
    <rect x="144" y="16" width="8" height="16" class="solid filled" rx="0"></rect>
    <rect x="152" y="16" width="8" height="16" class="solid filled" rx="0"></rect>
    <rect x="160" y="16" width="8" height="16" class="solid filled" rx="0"></rect>
    <rect x="168" y="16" width="8" height="16" class="solid filled" rx="0"></rect>
    <rect x="176" y="16" width="8" height="16" class="solid filled" rx="0"></rect>
    <rect x="184" y="16" width="8" height="16" class="solid filled" rx="0"></rect>
    <rect x="200" y="16" width="8" height="16" class="solid filled" rx="0"></rect>
    <rect x="208" y="16" width="8" height="16" class="solid filled" rx="0"></rect>
    <rect x="216" y="16" width="8" height="16" class="solid filled" rx="0"></rect>
    <rect x="224" y="16" width="8" height="16" class="solid filled" rx="0"></rect>
    <rect x="232" y="16" width="8" height="16" class="solid filled" rx="0"></rect>
    <rect x="240" y="16" width="8" height="16" class="solid filled" rx="0"></rect>
    <rect x="248" y="16" width="8" height="16" class="solid filled" rx="0"></rect>
    <rect x="264" y="16" width="8" height="16" class="solid filled" rx="0"></rect>
    <rect x="272" y="16" width="8" height="16" class="solid filled" rx="0"></rect>
    <rect x="280" y="16" width="8" height="16" class="solid filled" rx="0"></rect>
    <rect x="288" y="16" width="8" height="16" class="solid filled" rx="0"></rect>
    <rect x="296" y="16" width="8" height="16" class="solid filled" rx="0"></rect>
    <rect x="304" y="16" width="8" height="16" class="solid filled" rx="0"></rect>
    <rect x="328" y="16" width="8" height="16" class="solid filled" rx="0"></rect>
    <rect x="336" y="16" width="8" height="16" class="solid filled" rx="0"></rect>
    <rect x="344" y="16" width="8" height="16" class="solid filled" rx="0"></rect>
    <rect x="384" y="16" width="8" height="16" class="solid filled" rx="0"></rect>
    <rect x="392" y="16" width="8" height="16" class="solid filled" rx="0"></rect>
    <rect x="400" y="16" width="8" height="16" class="solid filled" rx="0"></rect>
    <rect x="0" y="32" width="8" height="16" class="solid filled" rx="0"></rect>
    <rect x="8" y="32" width="8" height="16" class="solid filled" rx="0"></rect>
    <rect x="40" y="32" width="8" height="16" class="solid filled" rx="0"></rect>
    <rect x="48" y="32" width="8" height="16" class="solid filled" rx="0"></rect>
    <rect x="104" y="32" width="8" height="16" class="solid filled" rx="0"></rect>
    <rect x="112" y="32" width="8" height="16" class="solid filled" rx="0"></rect>
    <rect x="152" y="32" width="8" height="16" class="solid filled" rx="0"></rect>
    <rect x="160" y="32" width="8" height="16" class="solid filled" rx="0"></rect>
    <rect x="200" y="32" width="8" height="16" class="solid filled" rx="0"></rect>
    <rect x="208" y="32" width="8" height="16" class="solid filled" rx="0"></rect>
    <rect x="264" y="32" width="8" height="16" class="solid filled" rx="0"></rect>
    <rect x="272" y="32" width="8" height="16" class="solid filled" rx="0"></rect>
    <rect x="304" y="32" width="8" height="16" class="solid filled" rx="0"></rect>
    <rect x="312" y="32" width="8" height="16" class="solid filled" rx="0"></rect>
    <rect x="328" y="32" width="8" height="16" class="solid filled" rx="0"></rect>
    <rect x="336" y="32" width="8" height="16" class="solid filled" rx="0"></rect>
    <rect x="344" y="32" width="8" height="16" class="solid filled" rx="0"></rect>
    <rect x="352" y="32" width="8" height="16" class="solid filled" rx="0"></rect>
    <rect x="376" y="32" width="8" height="16" class="solid filled" rx="0"></rect>
    <rect x="384" y="32" width="8" height="16" class="solid filled" rx="0"></rect>
    <rect x="392" y="32" width="8" height="16" class="solid filled" rx="0"></rect>
    <rect x="400" y="32" width="8" height="16" class="solid filled" rx="0"></rect>
    <rect x="0" y="48" width="8" height="16" class="solid filled" rx="0"></rect>
    <rect x="8" y="48" width="8" height="16" class="solid filled" rx="0"></rect>
    <rect x="16" y="48" width="8" height="16" class="solid filled" rx="0"></rect>
    <rect x="24" y="48" width="8" height="16" class="solid filled" rx="0"></rect>
    <rect x="32" y="48" width="8" height="16" class="solid filled" rx="0"></rect>
    <rect x="40" y="48" width="8" height="16" class="solid filled" rx="0"></rect>
    <rect x="48" y="48" width="8" height="16" class="solid filled" rx="0"></rect>
    <rect x="72" y="48" width="8" height="16" class="solid filled" rx="0"></rect>
    <rect x="80" y="48" width="8" height="16" class="solid filled" rx="0"></rect>
    <rect x="88" y="48" width="8" height="16" class="solid filled" rx="0"></rect>
    <rect x="96" y="48" width="8" height="16" class="solid filled" rx="0"></rect>
    <rect x="104" y="48" width="8" height="16" class="solid filled" rx="0"></rect>
    <rect x="152" y="48" width="8" height="16" class="solid filled" rx="0"></rect>
    <rect x="160" y="48" width="8" height="16" class="solid filled" rx="0"></rect>
    <rect x="200" y="48" width="8" height="16" class="solid filled" rx="0"></rect>
    <rect x="208" y="48" width="8" height="16" class="solid filled" rx="0"></rect>
    <rect x="216" y="48" width="8" height="16" class="solid filled" rx="0"></rect>
    <rect x="224" y="48" width="8" height="16" class="solid filled" rx="0"></rect>
    <rect x="232" y="48" width="8" height="16" class="solid filled" rx="0"></rect>
    <rect x="264" y="48" width="8" height="16" class="solid filled" rx="0"></rect>
    <rect x="272" y="48" width="8" height="16" class="solid filled" rx="0"></rect>
    <rect x="280" y="48" width="8" height="16" class="solid filled" rx="0"></rect>
    <rect x="288" y="48" width="8" height="16" class="solid filled" rx="0"></rect>
    <rect x="296" y="48" width="8" height="16" class="solid filled" rx="0"></rect>
    <rect x="304" y="48" width="8" height="16" class="solid filled" rx="0"></rect>
    <rect x="328" y="48" width="8" height="16" class="solid filled" rx="0"></rect>
    <rect x="336" y="48" width="8" height="16" class="solid filled" rx="0"></rect>
    <rect x="352" y="48" width="8" height="16" class="solid filled" rx="0"></rect>
    <rect x="360" y="48" width="8" height="16" class="solid filled" rx="0"></rect>
    <rect x="368" y="48" width="8" height="16" class="solid filled" rx="0"></rect>
    <rect x="376" y="48" width="8" height="16" class="solid filled" rx="0"></rect>
    <rect x="392" y="48" width="8" height="16" class="solid filled" rx="0"></rect>
    <rect x="400" y="48" width="8" height="16" class="solid filled" rx="0"></rect>
    <rect x="0" y="64" width="8" height="16" class="solid filled" rx="0"></rect>
    <rect x="8" y="64" width="8" height="16" class="solid filled" rx="0"></rect>
    <rect x="40" y="64" width="8" height="16" class="solid filled" rx="0"></rect>
    <rect x="48" y="64" width="8" height="16" class="solid filled" rx="0"></rect>
    <rect x="104" y="64" width="8" height="16" class="solid filled" rx="0"></rect>
    <rect x="112" y="64" width="8" height="16" class="solid filled" rx="0"></rect>
    <rect x="152" y="64" width="8" height="16" class="solid filled" rx="0"></rect>
    <rect x="160" y="64" width="8" height="16" class="solid filled" rx="0"></rect>
    <rect x="200" y="64" width="8" height="16" class="solid filled" rx="0"></rect>
    <rect x="208" y="64" width="8" height="16" class="solid filled" rx="0"></rect>
    <rect x="264" y="64" width="8" height="16" class="solid filled" rx="0"></rect>
    <rect x="272" y="64" width="8" height="16" class="solid filled" rx="0"></rect>
    <rect x="304" y="64" width="8" height="16" class="solid filled" rx="0"></rect>
    <rect x="312" y="64" width="8" height="16" class="solid filled" rx="0"></rect>
    <rect x="328" y="64" width="8" height="16" class="solid filled" rx="0"></rect>
    <rect x="336" y="64" width="8" height="16" class="solid filled" rx="0"></rect>
    <rect x="360" y="64" width="8" height="16" class="solid filled" rx="0"></rect>
    <rect x="368" y="64" width="8" height="16" class="solid filled" rx="0"></rect>
    <rect x="392" y="64" width="8" height="16" class="solid filled" rx="0"></rect>
    <rect x="400" y="64" width="8" height="16" class="solid filled" rx="0"></rect>
    <rect x="0" y="80" width="8" height="16" class="solid filled" rx="0"></rect>
    <rect x="8" y="80" width="8" height="16" class="solid filled" rx="0"></rect>
    <rect x="40" y="80" width="8" height="16" class="solid filled" rx="0"></rect>
    <rect x="48" y="80" width="8" height="16" class="solid filled" rx="0"></rect>
    <rect x="64" y="80" width="8" height="16" class="solid filled" rx="0"></rect>
    <rect x="72" y="80" width="8" height="16" class="solid filled" rx="0"></rect>
    <rect x="80" y="80" width="8" height="16" class="solid filled" rx="0"></rect>
    <rect x="88" y="80" width="8" height="16" class="solid filled" rx="0"></rect>
    <rect x="96" y="80" width="8" height="16" class="solid filled" rx="0"></rect>
    <rect x="104" y="80" width="8" height="16" class="solid filled" rx="0"></rect>
    <rect x="152" y="80" width="8" height="16" class="solid filled" rx="0"></rect>
    <rect x="160" y="80" width="8" height="16" class="solid filled" rx="0"></rect>
    <rect x="200" y="80" width="8" height="16" class="solid filled" rx="0"></rect>
    <rect x="208" y="80" width="8" height="16" class="solid filled" rx="0"></rect>
    <rect x="216" y="80" width="8" height="16" class="solid filled" rx="0"></rect>
    <rect x="224" y="80" width="8" height="16" class="solid filled" rx="0"></rect>
    <rect x="232" y="80" width="8" height="16" class="solid filled" rx="0"></rect>
    <rect x="240" y="80" width="8" height="16" class="solid filled" rx="0"></rect>
    <rect x="248" y="80" width="8" height="16" class="solid filled" rx="0"></rect>
    <rect x="264" y="80" width="8" height="16" class="solid filled" rx="0"></rect>
    <rect x="272" y="80" width="8" height="16" class="solid filled" rx="0"></rect>
    <rect x="304" y="80" width="8" height="16" class="solid filled" rx="0"></rect>
    <rect x="312" y="80" width="8" height="16" class="solid filled" rx="0"></rect>
    <rect x="328" y="80" width="8" height="16" class="solid filled" rx="0"></rect>
    <rect x="336" y="80" width="8" height="16" class="solid filled" rx="0"></rect>
    <rect x="392" y="80" width="8" height="16" class="solid filled" rx="0"></rect>
    <rect x="400" y="80" width="8" height="16" class="solid filled" rx="0"></rect>
    <g>
        <line x1="16" y1="24" x2="22" y2="24" class="solid"></line>
        <line x1="22" y1="24" x2="22" y2="48" class="solid"></line>
    </g>
    <g>
        <line x1="16" y1="28" x2="18" y2="28" class="solid"></line>
        <line x1="18" y1="28" x2="18" y2="48" class="solid"></line>
    </g>
    <g>
        <line x1="56" y1="24" x2="62" y2="24" class="solid"></line>
        <line x1="62" y1="24" x2="62" y2="108" class="solid"></line>
        <line x1="42" y1="96" x2="42" y2="108" class="solid"></line>
        <line x1="42" y1="108" x2="62" y2="108" class="solid"></line>
    </g>
    <g>
        <line x1="56" y1="28" x2="58" y2="28" class="solid"></line>
        <line x1="58" y1="28" x2="58" y2="104" class="solid"></line>
        <line x1="46" y1="96" x2="46" y2="104" class="solid"></line>
        <line x1="46" y1="104" x2="58" y2="104" class="solid"></line>
    </g>
    <g>
        <line x1="112" y1="24" x2="118" y2="24" class="solid"></line>
        <line x1="118" y1="24" x2="118" y2="32" class="solid"></line>
    </g>
    <g>
        <line x1="112" y1="28" x2="114" y2="28" class="solid"></line>
        <line x1="114" y1="28" x2="114" y2="32" class="solid"></line>
    </g>
    <g>
        <line x1="192" y1="24" x2="198" y2="24" class="solid"></line>
        <line x1="198" y1="24" x2="198" y2="44" class="solid"></line>
        <line x1="174" y1="44" x2="198" y2="44" class="solid"></line>
        <line x1="174" y1="44" x2="174" y2="108" class="solid"></line>
        <line x1="154" y1="96" x2="154" y2="108" class="solid"></line>
        <line x1="154" y1="108" x2="174" y2="108" class="solid"></line>
    </g>
    <g>
        <line x1="192" y1="28" x2="194" y2="28" class="solid"></line>
        <line x1="194" y1="28" x2="194" y2="40" class="solid"></line>
        <line x1="170" y1="40" x2="194" y2="40" class="solid"></line>
        <line x1="170" y1="40" x2="170" y2="104" class="solid"></line>
        <line x1="158" y1="96" x2="158" y2="104" class="solid"></line>
        <line x1="158" y1="104" x2="170" y2="104" class="solid"></line>
    </g>
    <g>
        <line x1="256" y1="24" x2="262" y2="24" class="solid"></line>
        <line x1="262" y1="24" x2="262" y2="44" class="solid"></line>
        <line x1="222" y1="44" x2="262" y2="44" class="solid"></line>
        <line x1="222" y1="44" x2="222" y2="48" class="solid"></line>
    </g>
    <g>
        <line x1="256" y1="28" x2="258" y2="28" class="solid"></line>
        <line x1="258" y1="28" x2="258" y2="40" class="solid"></line>
        <line x1="218" y1="40" x2="258" y2="40" class="solid"></line>
        <line x1="218" y1="40" x2="218" y2="48" class="solid"></line>
    </g>
    <g>
        <line x1="312" y1="24" x2="318" y2="24" class="solid"></line>
        <line x1="318" y1="24" x2="318" y2="32" class="solid"></line>
    </g>
    <g>
        <line x1="312" y1="28" x2="314" y2="28" class="solid"></line>
        <line x1="314" y1="28" x2="314" y2="32" class="solid"></line>
    </g>
    <g>
        <line x1="352" y1="24" x2="358" y2="24" class="solid"></line>
        <line x1="358" y1="24" x2="358" y2="32" class="solid"></line>
    </g>
    <g>
        <line x1="352" y1="28" x2="354" y2="28" class="solid"></line>
        <line x1="354" y1="28" x2="354" y2="32" class="solid"></line>
    </g>
    <g>
        <line x1="408" y1="24" x2="414" y2="24" class="solid"></line>
        <line x1="414" y1="24" x2="414" y2="108" class="solid"></line>
        <line x1="394" y1="96" x2="394" y2="108" class="solid"></line>
        <line x1="394" y1="108" x2="414" y2="108" class="solid"></line>
    </g>
    <g>
        <line x1="408" y1="28" x2="410" y2="28" class="solid"></line>
        <line x1="410" y1="28" x2="410" y2="104" class="solid"></line>
        <line x1="398" y1="96" x2="398" y2="104" class="solid"></line>
        <line x1="398" y1="104" x2="410" y2="104" class="solid"></line>
    </g>
    <g>
        <line x1="66" y1="32" x2="66" y2="44" class="solid"></line>
        <line x1="66" y1="44" x2="104" y2="44" class="solid"></line>
    </g>
    <g>
        <line x1="70" y1="32" x2="70" y2="40" class="solid"></line>
        <line x1="70" y1="40" x2="104" y2="40" class="solid"></line>
    </g>
    <g>
        <line x1="120" y1="40" x2="126" y2="40" class="solid"></line>
        <line x1="126" y1="40" x2="126" y2="60" class="solid"></line>
        <line x1="118" y1="60" x2="126" y2="60" class="solid"></line>
        <line x1="118" y1="60" x2="118" y2="64" class="solid"></line>
    </g>
    <g>
        <line x1="120" y1="44" x2="122" y2="44" class="solid"></line>
        <line x1="122" y1="44" x2="122" y2="56" class="solid"></line>
        <line x1="114" y1="56" x2="122" y2="56" class="solid"></line>
        <line x1="114" y1="56" x2="114" y2="64" class="solid"></line>
    </g>
    <g>
        <line x1="130" y1="32" x2="130" y2="44" class="solid"></line>
        <line x1="130" y1="44" x2="152" y2="44" class="solid"></line>
    </g>
    <g>
        <line x1="134" y1="32" x2="134" y2="40" class="solid"></line>
        <line x1="134" y1="40" x2="152" y2="40" class="solid"></line>
    </g>
    <g>
        <line x1="282" y1="40" x2="304" y2="40" class="solid"></line>
        <line x1="282" y1="40" x2="282" y2="48" class="solid"></line>
    </g>
    <g>
        <line x1="286" y1="44" x2="304" y2="44" class="solid"></line>
        <line x1="286" y1="44" x2="286" y2="48" class="solid"></line>
    </g>
    <g>
        <line x1="320" y1="40" x2="326" y2="40" class="solid"></line>
        <line x1="326" y1="40" x2="326" y2="60" class="solid"></line>
        <line x1="318" y1="60" x2="326" y2="60" class="solid"></line>
        <line x1="318" y1="60" x2="318" y2="64" class="solid"></line>
    </g>
    <g>
        <line x1="320" y1="44" x2="322" y2="44" class="solid"></line>
        <line x1="322" y1="44" x2="322" y2="56" class="solid"></line>
        <line x1="314" y1="56" x2="322" y2="56" class="solid"></line>
        <line x1="314" y1="56" x2="314" y2="64" class="solid"></line>
    </g>
    <g>
        <line x1="360" y1="40" x2="366" y2="40" class="solid"></line>
        <line x1="366" y1="40" x2="366" y2="48" class="solid"></line>
    </g>
    <g>
        <line x1="360" y1="44" x2="362" y2="44" class="solid"></line>
        <line x1="362" y1="44" x2="362" y2="48" class="solid"></line>
    </g>
    <g>
        <line x1="240" y1="56" x2="246" y2="56" class="solid"></line>
        <line x1="246" y1="56" x2="246" y2="76" class="solid"></line>
        <line x1="222" y1="76" x2="246" y2="76" class="solid"></line>
        <line x1="222" y1="76" x2="222" y2="80" class="solid"></line>
    </g>
    <g>
        <line x1="240" y1="60" x2="242" y2="60" class="solid"></line>
        <line x1="242" y1="60" x2="242" y2="72" class="solid"></line>
        <line x1="218" y1="72" x2="242" y2="72" class="solid"></line>
        <line x1="218" y1="72" x2="218" y2="80" class="solid"></line>
    </g>
    <g>
        <line x1="346" y1="56" x2="352" y2="56" class="solid"></line>
        <line x1="346" y1="56" x2="346" y2="104" class="solid"></line>
        <line x1="334" y1="96" x2="334" y2="104" class="solid"></line>
        <line x1="334" y1="104" x2="346" y2="104" class="solid"></line>
    </g>
    <g>
        <line x1="350" y1="60" x2="352" y2="60" class="solid"></line>
        <line x1="350" y1="60" x2="350" y2="108" class="solid"></line>
        <line x1="330" y1="96" x2="330" y2="108" class="solid"></line>
        <line x1="330" y1="108" x2="350" y2="108" class="solid"></line>
    </g>
    <g>
        <line x1="386" y1="56" x2="392" y2="56" class="solid"></line>
        <line x1="386" y1="56" x2="386" y2="72" class="solid"></line>
        <line x1="378" y1="72" x2="386" y2="72" class="solid"></line>
        <line x1="378" y1="72" x2="378" y2="88" class="solid"></line>
        <line x1="366" y1="80" x2="366" y2="88" class="solid"></line>
        <line x1="366" y1="88" x2="378" y2="88" class="solid"></line>
    </g>
    <g>
        <line x1="390" y1="60" x2="392" y2="60" class="solid"></line>
        <line x1="390" y1="60" x2="390" y2="76" class="solid"></line>
        <line x1="382" y1="76" x2="390" y2="76" class="solid"></line>
        <line x1="382" y1="76" x2="382" y2="92" class="solid"></line>
        <line x1="362" y1="80" x2="362" y2="92" class="solid"></line>
        <line x1="362" y1="92" x2="382" y2="92" class="solid"></line>
    </g>
    <g>
        <line x1="18" y1="72" x2="40" y2="72" class="solid"></line>
        <line x1="18" y1="72" x2="18" y2="104" class="solid"></line>
        <line x1="6" y1="96" x2="6" y2="104" class="solid"></line>
        <line x1="6" y1="104" x2="18" y2="104" class="solid"></line>
    </g>
    <g>
        <line x1="22" y1="76" x2="40" y2="76" class="solid"></line>
        <line x1="22" y1="76" x2="22" y2="108" class="solid"></line>
        <line x1="2" y1="96" x2="2" y2="108" class="solid"></line>
        <line x1="2" y1="108" x2="22" y2="108" class="solid"></line>
    </g>
    <g>
        <line x1="74" y1="64" x2="74" y2="76" class="solid"></line>
        <line x1="74" y1="76" x2="104" y2="76" class="solid"></line>
    </g>
    <g>
        <line x1="78" y1="64" x2="78" y2="72" class="solid"></line>
        <line x1="78" y1="72" x2="104" y2="72" class="solid"></line>
    </g>
    <g>
        <line x1="120" y1="72" x2="126" y2="72" class="solid"></line>
        <line x1="126" y1="72" x2="126" y2="92" class="solid"></line>
        <line x1="118" y1="92" x2="126" y2="92" class="solid"></line>
        <line x1="118" y1="92" x2="118" y2="108" class="solid"></line>
        <line x1="66" y1="96" x2="66" y2="108" class="solid"></line>
        <line x1="66" y1="108" x2="118" y2="108" class="solid"></line>
    </g>
    <g>
        <line x1="120" y1="76" x2="122" y2="76" class="solid"></line>
        <line x1="122" y1="76" x2="122" y2="88" class="solid"></line>
        <line x1="114" y1="88" x2="122" y2="88" class="solid"></line>
        <line x1="114" y1="88" x2="114" y2="104" class="solid"></line>
        <line x1="70" y1="96" x2="70" y2="104" class="solid"></line>
        <line x1="70" y1="104" x2="114" y2="104" class="solid"></line>
    </g>
    <g>
        <line x1="282" y1="72" x2="304" y2="72" class="solid"></line>
        <line x1="282" y1="72" x2="282" y2="104" class="solid"></line>
        <line x1="270" y1="96" x2="270" y2="104" class="solid"></line>
        <line x1="270" y1="104" x2="282" y2="104" class="solid"></line>
    </g>
    <g>
        <line x1="286" y1="76" x2="304" y2="76" class="solid"></line>
        <line x1="286" y1="76" x2="286" y2="108" class="solid"></line>
        <line x1="266" y1="96" x2="266" y2="108" class="solid"></line>
        <line x1="266" y1="108" x2="286" y2="108" class="solid"></line>
    </g>
    <g>
        <line x1="320" y1="72" x2="326" y2="72" class="solid"></line>
        <line x1="326" y1="72" x2="326" y2="108" class="solid"></line>
        <line x1="306" y1="96" x2="306" y2="108" class="solid"></line>
        <line x1="306" y1="108" x2="326" y2="108" class="solid"></line>
    </g>
    <g>
        <line x1="320" y1="76" x2="322" y2="76" class="solid"></line>
        <line x1="322" y1="76" x2="322" y2="104" class="solid"></line>
        <line x1="310" y1="96" x2="310" y2="104" class="solid"></line>
        <line x1="310" y1="104" x2="322" y2="104" class="solid"></line>
    </g>
    <g>
        <line x1="354" y1="64" x2="354" y2="76" class="solid"></line>
        <line x1="354" y1="76" x2="360" y2="76" class="solid"></line>
    </g>
    <g>
        <line x1="358" y1="64" x2="358" y2="72" class="solid"></line>
        <line x1="358" y1="72" x2="360" y2="72" class="solid"></line>
    </g>
    <g>
        <line x1="256" y1="88" x2="262" y2="88" class="solid"></line>
        <line x1="262" y1="88" x2="262" y2="108" class="solid"></line>
        <line x1="202" y1="96" x2="202" y2="108" class="solid"></line>
        <line x1="202" y1="108" x2="262" y2="108" class="solid"></line>
    </g>
    <g>
        <line x1="256" y1="92" x2="258" y2="92" class="solid"></line>
        <line x1="258" y1="92" x2="258" y2="104" class="solid"></line>
        <line x1="206" y1="96" x2="206" y2="104" class="solid"></line>
        <line x1="206" y1="104" x2="258" y2="104" class="solid"></line>
    </g>
</svg>